<?xml version="1.0" encoding="UTF-8"?>
<svg version="1.1" xmlns="http://www.w3.org/2000/svg" width="1906" height="1388">
<path d="M0 0 C4.55460483 0.00020752 9.1092037 -0.00534772 13.6638056 -0.01005757 C22.55228526 -0.01829116 31.44075829 -0.02110911 40.32924145 -0.02166995 C47.57364303 -0.02214879 54.81804247 -0.02422168 62.06244338 -0.02737057 C82.70829609 -0.03615876 103.35414366 -0.04079306 123.99999826 -0.0400401 C125.10823086 -0.04000014 126.21646346 -0.03996019 127.35827887 -0.03991902 C128.46790228 -0.03987814 129.5775257 -0.03983726 130.72077406 -0.03979514 C148.65981875 -0.03938962 166.59884235 -0.04894012 184.53788095 -0.06305739 C203.06211295 -0.0775173 221.58633474 -0.08432227 240.11057252 -0.08346361 C250.46825052 -0.08313484 260.82590622 -0.08579679 271.18357909 -0.09664166 C422.71388863 -0.24746492 422.71388863 -0.24746492 476.3848902 17.14538372 C477.06986578 17.36242961 477.75484137 17.57947551 478.46057379 17.80309856 C503.63681097 25.93272988 525.76254988 40.69486099 545.3848902 58.14538372 C545.88295172 58.58173137 546.38101325 59.01807903 546.89416754 59.46764934 C600.35033098 106.37426009 617.28846031 168.15299507 622.0723902 237.02038372 C622.13332861 237.88541515 622.19426703 238.75044658 622.25705206 239.64169109 C624.63037244 274.02237842 624.54864106 308.43979149 624.55214727 342.88334978 C624.55286656 346.86723199 624.55495645 350.851112 624.55764449 354.83499324 C624.56640798 368.10154585 624.57107054 381.36809052 624.57031401 394.63464604 C624.57025408 395.69763697 624.57025408 395.69763697 624.57019293 396.78210247 C624.57013161 397.84645561 624.57013161 397.84645561 624.57006905 398.93231083 C624.56966355 410.40263416 624.57922032 421.87292452 624.5933313 433.34323834 C624.60785069 445.2434871 624.61459311 457.14371994 624.61373752 469.04397774 C624.6134109 475.67580263 624.61612407 482.30759773 624.62691557 488.93941677 C624.76398586 579.50552198 621.74417165 663.42466587 554.3223902 731.45788372 C548.98451464 736.74741364 543.30966321 741.52176942 537.3848902 746.14538372 C536.38973395 746.94589153 535.3945777 747.74639934 534.3692652 748.57116497 C483.74594827 788.94355615 424.46467174 796.29186717 361.7989527 797.5906657 C357.32348802 797.68479703 352.84833882 797.79206759 348.37317145 797.89928997 C347.50100989 797.9201617 346.62884833 797.94103343 345.73025763 797.96253765 C302.59908687 797.72428846 302.59908687 797.72428846 265.6973902 817.27038372 C260.17816202 823.09667309 255.66826925 829.39327562 251.3848902 836.14538372 C250.92952887 836.85855754 250.47416754 837.57173137 250.00500739 838.30651653 C243.12928138 849.12426461 236.59711891 860.14021302 230.1348902 871.20788372 C227.22272936 876.18969502 224.30648267 881.16909752 221.3848902 886.14538372 C221.01114264 886.78222087 220.63739508 887.41905803 220.25232184 888.07519329 C218.00543015 891.899244 215.74466039 895.71456683 213.46655524 899.52010906 C212.75934492 900.70533082 212.05596955 901.8928515 211.3569361 903.08291423 C202.16865271 918.71000353 190.35201154 931.60202078 172.38659918 936.71398723 C155.63303387 940.83859129 138.43604713 938.66250892 123.49817145 930.16491497 C112.01237102 922.71427655 105.06286467 912.66102637 98.3223902 901.02038372 C97.1727451 899.05548468 96.02300284 897.09064249 94.87317145 895.12585247 C94.29260993 894.12989055 93.7120484 893.13392864 93.1138941 892.10778606 C88.81380003 884.74018631 84.4630473 877.40226349 80.11340582 870.06384075 C78.91769901 868.04498774 77.72380657 866.02505943 76.53137457 864.00427043 C61.9296545 838.64100416 61.9296545 838.64100416 43.3848902 816.14538372 C42.82672614 815.57561809 42.26856207 815.00585247 41.69348395 814.41882122 C21.7579105 795.68418593 -11.83158352 798.47475824 -37.11120355 797.93444622 C-119.00419122 796.17857843 -190.99142577 785.65752321 -250.6541723 724.29772747 C-254.92960424 719.80510905 -258.80515464 715.03505541 -262.6151098 710.14538372 C-263.39112543 709.19792278 -264.16714105 708.25046184 -264.9666723 707.27428997 C-275.77129125 693.81139176 -284.39722746 678.66142976 -291.71813715 663.0545634 C-292.31430222 661.78564373 -292.91877022 660.52059068 -293.53161371 659.25964153 C-305.10719451 635.39233733 -309.01681691 609.01478588 -311.3026098 582.83288372 C-311.36354822 582.14554149 -311.42448663 581.45819927 -311.48727167 580.75002849 C-313.41660351 558.53234352 -313.76626045 536.24085619 -313.74450433 513.9517802 C-313.7458645 511.5581693 -313.74764785 509.1645586 -313.74981439 506.77094829 C-313.75431734 500.35311619 -313.75262852 493.93530043 -313.74943531 487.51746809 C-313.74763777 483.48578111 -313.74800013 479.45409612 -313.74892557 475.42240894 C-313.7490788 474.74716994 -313.74923203 474.07193095 -313.74938991 473.37623017 C-313.74970973 472.00320319 -313.75003395 470.63017621 -313.7503625 469.25714923 C-313.75319647 456.45908475 -313.74996404 443.66102751 -313.74456213 430.86296422 C-313.74010318 419.96320395 -313.74086661 409.06345434 -313.7454809 398.16369426 C-313.75087627 385.41347714 -313.75291455 372.66326632 -313.74986863 359.91304821 C-313.74955019 358.54372176 -313.74923582 357.1743953 -313.74892557 355.80506885 C-313.74877129 355.13188268 -313.74861702 354.45869652 -313.74845807 353.76511077 C-313.74760713 349.09952822 -313.74907563 344.4339499 -313.75140512 339.76836765 C-313.78125662 270.49616433 -313.78125662 270.49616433 -311.3026098 236.45788372 C-311.2385293 235.56158245 -311.17444879 234.66528118 -311.10842645 233.74181926 C-306.05634824 163.94355193 -286.91143609 104.30625459 -233.56432855 56.65710247 C-228.40480375 52.26296413 -223.10380545 48.11973794 -217.6151098 44.14538372 C-217.06580804 43.74496868 -216.51650629 43.34455364 -215.95055902 42.93200481 C-176.05550281 14.19413867 -128.94554722 6.20033759 -80.9901098 2.45788372 C-80.22190912 2.39703594 -79.45370843 2.33618816 -78.66222894 2.27349651 C-52.46489425 0.23441404 -26.25927897 -0.00749642 0 0 Z " fill="#936EFF" transform="translate(797.6151098012924,-0.14538371562957764)"/>
<path d="M0 0 C2.1980588 0.01611552 4.3942803 0.00001064 6.59228516 -0.01904297 C43.99532834 -0.07516039 78.57356155 16.27213833 104.94775391 42.20361328 C111.74783375 49.06268372 117.58619847 56.20098197 122.69775391 64.39111328 C123.0797998 64.99858398 123.4618457 65.60605469 123.85546875 66.23193359 C133.40127472 81.66345417 140.17845783 98.59088419 143.69775391 116.39111328 C144.03419922 118.07914063 144.03419922 118.07914063 144.37744141 119.80126953 C150.63012307 157.78845197 141.87865204 197.90527031 119.69775391 229.39111328 C121.15644144 232.75110347 123.00644339 234.94314434 125.59667969 237.51708984 C126.3973587 238.3176178 127.19803772 239.11814575 128.02297974 239.94293213 C129.31992264 241.22439117 129.31992264 241.22439117 130.64306641 242.53173828 C131.52807831 243.41392029 132.41309021 244.29610229 133.32492065 245.20501709 C135.67225522 247.54305871 138.02382176 249.87667202 140.37756348 252.20825195 C142.78089318 254.59107854 145.17853158 256.97961676 147.57666016 259.36767578 C152.27846857 264.0474319 156.98594055 268.72143195 161.69775391 273.39111328 C157.92651146 277.89566153 154.03709421 282.19305204 149.86181641 286.32470703 C149.07549332 287.1089077 149.07549332 287.1089077 148.27328491 287.90895081 C146.6254752 289.55123673 144.97419489 291.18997978 143.32275391 292.82861328 C142.19361436 293.95272795 141.06470613 295.07707502 139.93603516 296.20166016 C137.19260203 298.93416563 134.44605406 301.66350337 131.69775391 304.39111328 C126.22461425 299.82963781 121.15820582 294.98370007 116.13916016 289.93017578 C114.95543068 288.74432388 114.95543068 288.74432388 113.74778748 287.53451538 C111.24956729 285.03073703 108.75486346 282.52348853 106.26025391 280.01611328 C104.55801183 278.3088508 102.85554018 276.60181719 101.15283203 274.89501953 C96.99848027 270.7296943 92.84700309 266.56152109 88.69775391 262.39111328 C85.04782628 263.80064897 82.0091953 265.39095937 78.76025391 267.57861328 C46.76652425 288.10048768 7.96796245 293.82854179 -29.06860352 286.12353516 C-65.82732354 277.71375968 -98.67823571 254.15627216 -118.91552734 222.35595703 C-122.857935 215.93701069 -126.1903828 209.24518238 -129.30224609 202.39111328 C-129.77404297 201.35986328 -130.24583984 200.32861328 -130.73193359 199.26611328 C-145.17212124 164.8249204 -144.17333636 122.46224606 -130.35888672 88.04052734 C-126.50660817 78.99420856 -121.97025685 70.43993026 -116.30224609 62.39111328 C-115.62548828 61.42947266 -114.94873047 60.46783203 -114.25146484 59.47705078 C-96.04032821 34.44078124 -72.17465212 16.62542013 -42.86474609 6.57861328 C-42.0680249 6.30065918 -41.27130371 6.02270508 -40.45043945 5.73632812 C-27.22465403 1.41754338 -13.84449392 -0.12001228 0 0 Z M-67.81591797 73.99755859 C-87.08853624 95.63766317 -93.5332313 123.40834187 -92.45458984 151.8359375 C-91.12993135 174.05368712 -83.92258498 195.37896781 -69.30224609 212.39111328 C-68.52494141 213.38304687 -68.52494141 213.38304687 -67.73193359 214.39501953 C-54.09709992 231.22448815 -31.65267185 241.12337601 -10.55224609 243.73095703 C-7.80293203 244.00970693 -5.06042614 244.22308151 -2.30224609 244.39111328 C-1.61001953 244.43365234 -0.91779297 244.47619141 -0.20458984 244.52001953 C20.00762019 245.10418745 38.43107136 239.51989504 55.69775391 229.39111328 C50.63275153 223.26693168 45.11946181 217.68395467 39.48681641 212.08251953 C38.50868123 211.10625342 37.53076956 210.12976334 36.55307007 209.15306091 C34.00060992 206.60438751 31.44515942 204.05873371 28.88903809 201.51373291 C26.27265477 198.9076471 23.65916088 196.29866707 21.04541016 193.68994141 C15.93232145 188.5875221 10.81606479 183.48829471 5.69775391 178.39111328 C7.59093231 174.26720929 10.37600758 171.45830724 13.58056641 168.31298828 C14.44196732 167.45583221 14.44196732 167.45583221 15.32077026 166.58135986 C17.15011201 164.76318383 18.98629584 162.95209837 20.82275391 161.14111328 C22.06670164 159.90719999 23.31019661 158.67283006 24.55322266 157.43798828 C27.59617757 154.41704585 30.64528645 151.40244236 33.69775391 148.39111328 C37.31343152 149.91778722 39.59839899 152.06061807 42.34277344 154.84082031 C43.71406906 156.2220256 43.71406906 156.2220256 45.11306763 157.63113403 C45.59667881 158.12298313 46.08028999 158.61483223 46.57855606 159.12158585 C48.09532075 160.66392894 49.61829186 162.1998918 51.14303589 163.73434448 C54.37524581 166.98937513 57.5995337 170.25218376 60.82275391 173.51611328 C64.56469624 177.30520431 68.309788 181.09106533 72.0633812 184.86861801 C73.56648914 186.38472676 75.06346912 187.90671555 76.56033325 189.4289856 C77.46822601 190.3434848 78.37611877 191.25798401 79.31152344 192.20019531 C80.11220245 193.01134796 80.91288147 193.82250061 81.73782349 194.65823364 C83.51145297 196.61190655 83.51145297 196.61190655 85.69775391 196.39111328 C99.02367413 167.16292827 102.16714474 135.48049863 91.13525391 104.94580078 C81.05707061 80.02420621 64.22146848 62.22884736 39.79541016 51.24853516 C34.2802972 48.9942199 28.51078133 47.64434818 22.69775391 46.39111328 C21.93970459 46.21676758 21.18165527 46.04242187 20.40063477 45.86279297 C-11.58250202 40.28141637 -45.46231484 50.27389592 -67.81591797 73.99755859 Z " fill="#FFFFFF" transform="translate(156.30224609375,1081.60888671875)"/>
<path d="M0 0 C2.03248826 1.79188218 4.03807462 3.60062951 6.0078125 5.4609375 C5.42735326 8.67010482 4.54404808 10.29530238 2.23217773 12.57714844 C1.65165146 13.15744812 1.07112518 13.7377478 0.4730072 14.33563232 C-0.47076027 15.25617401 -0.47076027 15.25617401 -1.43359375 16.1953125 C-2.07586411 16.83333801 -2.71813446 17.47136353 -3.37986755 18.12872314 C-5.43120476 20.16327868 -7.49273023 22.18715129 -9.5546875 24.2109375 C-10.94794984 25.58915241 -12.34053648 26.96805075 -13.73242188 28.34765625 C-17.14455615 31.72672796 -20.56586457 35.09625614 -23.9921875 38.4609375 C-27.44674211 36.81863806 -29.97691507 34.85723898 -32.8671875 32.3359375 C-51.33146935 17.06361927 -72.38367184 11.25539897 -96.0546875 11.0859375 C-97.30886475 11.07199951 -98.56304199 11.05806152 -99.85522461 11.04370117 C-121.95239249 11.15493095 -142.40936534 18.87344678 -158.9921875 33.4609375 C-159.75402344 34.12738281 -160.51585937 34.79382812 -161.30078125 35.48046875 C-178.37791354 51.43293721 -187.6477891 75.74162024 -189.21484375 98.72680664 C-190.21729185 128.17588011 -185.16478955 157.15728454 -165.25390625 180.04296875 C-147.90363324 198.59187893 -124.70348316 207.29062919 -99.56640625 208.5859375 C-73.73729139 209.21304803 -48.02751592 202.21114465 -28.765625 184.40234375 C-27.13386087 182.78683225 -25.55644799 181.1409259 -23.9921875 179.4609375 C-16.87313523 185.26776969 -10.51843938 191.82379194 -4.0546875 198.3359375 C-2.88239546 199.51325388 -1.70987136 200.69033924 -0.53710938 201.8671875 C2.31388232 204.72911239 5.16170865 207.59415207 8.0078125 210.4609375 C-0.85362029 228.8643535 -27.59540475 240.2399022 -45.703125 246.703125 C-81.18466526 258.79531599 -124.15849451 257.88121804 -158.16625977 241.61230469 C-192.16773921 224.80150619 -218.37598305 196.44790828 -230.7734375 160.44921875 C-232.38366984 155.50254665 -233.73449381 150.50743344 -234.9921875 145.4609375 C-235.17007812 144.78434082 -235.34796875 144.10774414 -235.53125 143.41064453 C-240.92762162 122.0767746 -240.41028765 94.7182417 -234.9921875 73.4609375 C-234.82589844 72.77692871 -234.65960937 72.09291992 -234.48828125 71.38818359 C-225.28622809 34.14542957 -201.40044627 2.97580413 -168.72241211 -16.83935547 C-161.13130512 -21.28026553 -153.24265255 -24.57349835 -144.9921875 -27.5390625 C-143.93515625 -27.91933594 -142.878125 -28.29960938 -141.7890625 -28.69140625 C-92.89159151 -44.97008692 -38.74906906 -32.88106383 0 0 Z " fill="#FFFFFF" transform="translate(1281.9921875,1116.5390625)"/>
<path d="M0 0 C14.52 0 29.04 0 44 0 C44.33 37.95 44.66 75.9 45 115 C48.465 111.535 48.465 111.535 52 108 C71.40661605 93.38741737 92.63148498 89.56904863 116.53662109 92.28857422 C134.33000128 95.19752051 151.4096505 105.33076879 162 120 C172.37166615 135.60745908 176.16894482 151.27370524 176.11352539 169.91186523 C176.11367142 171.20035873 176.11381744 172.48885223 176.1139679 173.81639099 C176.11425367 177.33240738 176.10839249 180.84838934 176.10139394 184.36439776 C176.09512379 188.04526261 176.09455371 191.72612832 176.09336853 195.40699768 C176.09026599 202.36955131 176.08206715 209.33208914 176.07201904 216.29463583 C176.06082441 224.22451209 176.05533902 232.15438912 176.05032361 240.08427131 C176.03988361 256.38952489 176.02155155 272.69475674 176 289 C161.15 289 146.3 289 131 289 C130.9906543 285.46321533 130.98130859 281.92643066 130.97167969 278.2824707 C130.93782983 266.56372617 130.8824348 254.84513718 130.81609726 243.12653828 C130.77641919 236.02535474 130.74397007 228.92428022 130.72900391 221.82299805 C130.71592869 215.62789713 130.68881622 209.43303721 130.64538693 203.2380721 C130.62290247 199.96289323 130.60917662 196.68807121 130.60811615 193.41280556 C130.60573306 189.74139476 130.57854343 186.07090827 130.54589844 182.3996582 C130.5509288 181.33365891 130.55595917 180.26765961 130.56114197 179.1693573 C130.39069127 166.68333479 126.85229624 155.15084026 118.1171875 146.03515625 C108.02430605 136.67450345 96.92416632 134.37888675 83.515625 134.6953125 C72.76297716 135.2378773 63.80791911 139.64703051 56 147 C45.81833479 159.62005304 44.88352523 172.80453042 44.79467773 188.41650391 C44.78477814 189.51036407 44.77487854 190.60422424 44.76467896 191.73123169 C44.73332869 195.31298732 44.70841221 198.89475617 44.68359375 202.4765625 C44.66300131 204.97334113 44.64200427 207.47011645 44.62062073 209.96688843 C44.56563648 216.51309518 44.51612365 223.05933216 44.46777344 229.60559082 C44.41788266 236.29568472 44.36178974 242.98572907 44.30664062 249.67578125 C44.1993486 262.78381829 44.09832187 275.8918926 44 289 C29.48 289 14.96 289 0 289 C0 193.63 0 98.26 0 0 Z " fill="#FFFFFF" transform="translate(1325,1078)"/>
<path d="M0 0 C1.17844482 0.00829834 2.35688965 0.01659668 3.57104492 0.02514648 C24.00055249 0.41950601 43.05250828 7.80250828 57.6875 22.4375 C58.0175 16.4975 58.3475 10.5575 58.6875 4.4375 C73.5375 4.4375 88.3875 4.4375 103.6875 4.4375 C103.6875 68.1275 103.6875 131.8175 103.6875 197.4375 C88.8375 197.4375 73.9875 197.4375 58.6875 197.4375 C58.3575 191.1675 58.0275 184.8975 57.6875 178.4375 C56.800625 179.4275 55.91375 180.4175 55 181.4375 C39.7553401 196.59013982 18.48946372 201.49948967 -2.3125 201.4375 C-27.92683309 200.573112 -50.21470402 189.65564078 -67.90625 171.24609375 C-88.47557242 147.23742034 -93.93563947 118.40098615 -92.3125 87.4375 C-89.92436699 63.8241068 -79.85843664 43.18429779 -63.3125 26.4375 C-62.74144531 25.79425781 -62.17039062 25.15101562 -61.58203125 24.48828125 C-46.24240985 7.57132089 -22.238004 -0.20390055 0 0 Z M-24.3125 52.4375 C-25.15296875 53.06269531 -25.9934375 53.68789062 -26.859375 54.33203125 C-38.3670094 63.72993268 -44.39107924 76.90675552 -46.3125 91.4375 C-48.00287838 108.47711776 -44.96323829 125.41141985 -34.20703125 139.12109375 C-25.02678656 149.75500886 -14.56592407 156.6626834 -0.3125 158.4375 C16.31121243 159.42768677 30.34525439 156.52584639 43.375 145.8125 C55.46299137 134.43938984 60.85873366 119.71502748 61.875 103.43359375 C62.24985296 85.46408015 57.09204154 69.71089678 44.81640625 56.41015625 C34.86731971 46.95748983 21.40401352 42.56752289 7.875 42 C-3.62291495 42.35026761 -15.08389495 45.45326659 -24.3125 52.4375 Z " fill="#FFFFFF" transform="translate(1625.3125,1169.5625)"/>
<path d="M0 0 C14.85 0 29.7 0 45 0 C45.33 60.39 45.66 120.78 46 183 C51.80068924 176.61924183 57.33485377 170.42299814 62.71875 163.75 C65.06718968 160.91900422 67.50909902 158.20616402 70 155.5 C74.11378909 151.0301488 77.97087297 146.40955107 81.78515625 141.68359375 C83.95632827 139.05291443 86.20241357 136.52057576 88.5 134 C91.61458668 130.58260628 94.5918662 127.0947765 97.5 123.5 C101.10043998 119.04945613 104.86285226 114.79567436 108.71875 110.56640625 C112.01525265 106.85784077 115.13235469 103.01151234 118.25 99.15234375 C120 97 120 97 121 96 C122.68801985 95.90646837 124.37995207 95.88255209 126.07055664 95.88647461 C127.15160172 95.88655014 128.23264679 95.88662567 129.34645081 95.88670349 C131.110485 95.89444542 131.110485 95.89444542 132.91015625 95.90234375 C134.10732773 95.9037587 135.30449921 95.90517365 136.53794861 95.90663147 C140.37949066 95.91225021 144.22097543 95.92480589 148.0625 95.9375 C150.65950437 95.94251259 153.25650965 95.94707591 155.85351562 95.95117188 C162.23569679 95.96222573 168.6178443 95.97898208 175 96 C170.82136292 102.41140303 170.82136292 102.41140303 168.30078125 105.04296875 C167.81867188 105.5534375 167.3365625 106.06390625 166.83984375 106.58984375 C166.33582031 107.11707031 165.83179688 107.64429688 165.3125 108.1875 C161.5540135 112.18317254 157.93175864 116.21500703 154.5 120.5 C150.6794151 125.26188842 146.60932197 129.71435594 142.43920898 134.16625977 C139.34219916 137.491548 136.40378316 140.88719939 133.5625 144.4375 C130.05356678 148.812522 126.34153921 152.92019159 122.5 157 C117.86614564 161.92159693 113.50333925 166.96556678 109.27734375 172.24609375 C105.05828186 177.34804681 100.51692481 182.16224689 96 187 C100.11234179 196.17368553 108.62843486 203.91221336 115.20043945 211.45043945 C118.36331861 215.08551402 121.46777549 218.7543109 124.5 222.5 C128.57821716 227.53428272 132.80617058 232.42510708 137.06030273 237.31030273 C141.04716333 241.89116089 144.9881908 246.50750287 148.90136719 251.15136719 C152.28482022 255.16384271 155.70108021 259.14703561 159.125 263.125 C163.52311539 268.24012264 167.83960804 273.41005702 172.0859375 278.65234375 C173.71531298 280.65082266 175.37845293 282.61032253 177.0625 284.5625 C179 287 179 287 179 289 C171.75933244 289.30307558 164.5200591 289.53309375 157.27430248 289.67355824 C153.90818918 289.74103267 150.54645351 289.83225557 147.18286133 289.98071289 C123.57995132 290.94686275 123.57995132 290.94686275 117.87280273 286.23291016 C114.95208792 283.13294012 113.02046202 279.73284329 111 276 C109.5998084 274.2200085 108.16787368 272.46388448 106.6875 270.75 C105.96691406 269.86570312 105.24632812 268.98140625 104.50390625 268.0703125 C101.38657026 264.24780691 98.2580706 260.43461513 95.125 256.625 C94.52284668 255.89273193 93.92069336 255.16046387 93.30029297 254.40600586 C89.6760852 250.00783294 86.01335033 245.64624937 82.3125 241.3125 C78.63316612 237.00211758 75.09607067 232.60448569 71.625 228.125 C67.17074823 222.37752644 62.49878307 216.85613201 57.67822266 211.41259766 C53.55602875 206.73536717 49.85232554 201.95298998 46 197 C45.67 227.36 45.34 257.72 45 289 C30.15 289 15.3 289 0 289 C0 193.63 0 98.26 0 0 Z " fill="#FFFFFF" transform="translate(847,1078)"/>
<path d="M0 0 C14.85 0 29.7 0 45 0 C45.01458252 3.47096191 45.02916504 6.94192383 45.04418945 10.51806641 C45.09467439 22.0252452 45.16114666 33.5323014 45.23571491 45.03934669 C45.28051073 52.01156722 45.31996179 58.98373852 45.34643555 65.95605469 C45.372031 72.69297141 45.41304317 79.42963773 45.46318626 86.1664238 C45.47978681 88.72820653 45.49134326 91.29002739 45.49761391 93.85185623 C44.97133104 120.08222997 44.97133104 120.08222997 56.59375 142.8046875 C65.41420589 151.16747822 76.99973462 152.47193395 88.5859375 152.28125 C97.06484662 151.91687917 105.89320261 149.10679739 112 143 C120.46495596 133.22328331 122.6041757 120.98311182 122.54589844 108.41674805 C122.56140495 106.64362747 122.56140495 106.64362747 122.57722473 104.83468628 C122.60642305 100.97688758 122.60814708 97.11961877 122.609375 93.26171875 C122.6221905 90.567421 122.64091058 87.8731727 122.65948486 85.1789093 C122.69981755 78.84342773 122.72033158 72.50804848 122.73345876 66.17245847 C122.74940654 58.95092165 122.78785417 51.72955708 122.82805204 44.50812089 C122.91013932 29.67211986 122.96145668 14.83618594 123 0 C137.85 0 152.7 0 168 0 C168.06795415 16.03892204 168.12311897 32.0777195 168.15543652 48.11674595 C168.17084689 55.56543222 168.19182355 63.01402211 168.22631836 70.46264648 C168.25640071 76.96161611 168.27561726 83.46051586 168.28226548 89.95955318 C168.28614618 93.39464316 168.29514145 96.82953341 168.31719017 100.26455879 C168.48306875 129.33261599 164.82586064 153.55747058 143.8203125 175.2734375 C127.53088954 191.02138379 105.36318017 197.11153116 83.1875 197.03515625 C59.2522217 196.47711124 36.77196513 187.9755179 19.97265625 170.3828125 C4.91382352 152.19293535 -0.19027631 131.22591602 -0.11352539 107.96264648 C-0.11367142 106.79090378 -0.11381744 105.61916107 -0.1139679 104.41191101 C-0.11327499 100.56495265 -0.10551182 96.71804358 -0.09765625 92.87109375 C-0.09578986 90.19352639 -0.09431776 87.51596171 -0.09336853 84.83839417 C-0.09027118 78.52756013 -0.08207947 72.21674359 -0.07201904 65.90591723 C-0.06080812 58.71600495 -0.05533495 51.52609179 -0.05032361 44.33617294 C-0.03989539 29.55743848 -0.02156993 14.77872278 0 0 Z " fill="#FFFFFF" transform="translate(347,1174)"/>
<path d="M0 0 C0.6388916 0.21430664 1.2777832 0.42861328 1.93603516 0.64941406 C16.63444774 5.68447238 34.12095927 14.6814389 43 28 C42.50537212 32.65422906 39.1895149 35.18791554 35.99609375 38.296875 C35.39821548 38.89050842 34.80033722 39.48414185 34.18434143 40.09576416 C32.27565898 41.98767195 30.3568046 43.86887499 28.4375 45.75 C27.14059164 47.03186002 25.84435922 48.3144043 24.54882812 49.59765625 C21.37367043 52.73976072 18.18935054 55.87230539 15 59 C11.86101757 57.95367252 10.79701744 56.76187701 8.55859375 54.45703125 C-3.48389682 43.19926437 -19.55504788 39.26861796 -35.57421875 39.6875 C-50.68051087 40.47926897 -63.72750149 47.00193468 -74 58 C-84.35250152 71.09407307 -86.90017922 86.69675418 -86 103 C-84.05061018 119.15680713 -78.02819096 131.4208744 -65.62109375 142.03515625 C-51.87677216 152.42612811 -34.88594651 153.49104901 -18.3203125 151.57421875 C-6.85131308 149.28883133 3.95914162 143.56035204 12 135 C12.33 134.34 12.66 133.68 13 133 C17.13922888 134.64582286 19.99540069 137.63722895 23.11328125 140.70703125 C23.6870903 141.26944016 24.26089935 141.83184906 24.85209656 142.41130066 C26.05921921 143.59957697 27.26349444 144.79075194 28.46508789 145.98461914 C30.30984687 147.80987492 32.17481734 149.61272014 34.04101562 151.41601562 C35.21224879 152.57419627 36.38221563 153.7336592 37.55078125 154.89453125 C38.11211258 155.43116898 38.67344391 155.9678067 39.25178528 156.52070618 C40.7902832 158.07739258 40.7902832 158.07739258 43 161 C42.8827138 164.68576734 41.91730851 166.63518133 39.3125 169.1875 C18.14961605 189.01150762 -8.73378861 197.82968041 -37.44238281 196.92285156 C-60.70754379 195.63086654 -80.95606532 187.6802944 -99 173 C-100.051875 172.21625 -101.10375 171.4325 -102.1875 170.625 C-120.27673071 153.74171801 -131.85272508 129.29087676 -133.12451172 104.58081055 C-133.99415582 76.07430919 -127.70456614 49.50172526 -108 28 C-107.16726563 27.07445312 -106.33453125 26.14890625 -105.4765625 25.1953125 C-98.70652909 18.02820968 -91.49807375 12.90679738 -83 8 C-82.03449219 7.43410156 -81.06898438 6.86820313 -80.07421875 6.28515625 C-56.93044925 -6.29506701 -24.81299429 -8.49073768 0 0 Z " fill="#FFFFFF" transform="translate(773,1174)"/>
<path d="M0 0 C14.85 0 29.7 0 45 0 C45 26.4 45 52.8 45 80 C60.18 80 75.36 80 91 80 C91 93.53 91 107.06 91 121 C75.82 121 60.64 121 45 121 C45 171.16 45 221.32 45 273 C30.15 273 15.3 273 0 273 C0 222.84 0 172.68 0 121 C-15.18 121 -30.36 121 -46 121 C-46 107.47 -46 93.94 -46 80 C-30.82 80 -15.64 80 0 80 C0 53.6 0 27.2 0 0 Z " fill="#FFFFFF" transform="translate(1806,1094)"/>
<path d="M0 0 C14.85 0 29.7 0 45 0 C45 63.69 45 127.38 45 193 C30.15 193 15.3 193 0 193 C0 129.31 0 65.62 0 0 Z " fill="#FFFFFF" transform="translate(559,1174)"/>
<path d="M0 0 C9.6097442 8.67546351 15.17745603 20.16802914 16.25 32.98828125 C16.77938866 46.80201659 12.27491028 59.08954923 2.8984375 69.28515625 C-2.17609778 74.08175762 -7.55560118 77.35819676 -14 80 C-14.76828125 80.3196875 -15.5365625 80.639375 -16.328125 80.96875 C-27.74754114 85.05251471 -40.09887294 84.06123756 -51 79 C-62.46131301 73.05367363 -70.10426459 64.94262728 -75 53 C-75.47953125 51.84757812 -75.47953125 51.84757812 -75.96875 50.671875 C-80.05251471 39.25245886 -79.06123756 26.90112706 -74 16 C-67.25267119 2.99478592 -57.48834862 -4.95672333 -43.69140625 -9.8125 C-28.11041638 -13.929312 -12.49198932 -9.83744159 0 0 Z " fill="#FEFDFF" transform="translate(984,386)"/>
<path d="M0 0 C8.94719641 7.41339131 15.76317462 17.69956749 17.31762695 29.38842773 C17.47215507 31.85114156 17.51898197 34.28258361 17.5 36.75 C17.49427979 37.62180908 17.48855957 38.49361816 17.48266602 39.3918457 C17.09354744 53.57698649 10.76280424 63.64843593 0.75 73.25 C-8.87910673 81.47076799 -20.50689602 84.51434761 -32.95703125 84.24609375 C-45.51291952 83.23066248 -56.43270926 77.56347955 -64.99609375 68.41796875 C-74.82458739 56.55863627 -77.22074417 44.33848118 -76.25439453 29.27978516 C-74.83548022 16.56402527 -66.79115401 6.8146842 -57.390625 -1.2109375 C-39.83418684 -14.34957913 -17.31970594 -12.63870433 0 0 Z " fill="#FEFEFF" transform="translate(1170,385)"/>
<path d="M0 0 C11.10790141 7.12044962 18.5468618 17.44387145 21.75 30.25 C22.18394014 33.51305638 22.27530524 36.71063969 22.25 40 C22.24427979 40.87180908 22.23855957 41.74361816 22.23266602 42.6418457 C21.84354744 56.82698649 15.51280424 66.89843593 5.5 76.5 C-4.12910673 84.72076799 -15.75689602 87.76434761 -28.20703125 87.49609375 C-40.76291952 86.48066248 -51.68270926 80.81347955 -60.24609375 71.66796875 C-70.07458739 59.80863627 -72.47074417 47.58848118 -71.50439453 32.52978516 C-70.09183257 19.87095256 -62.06610215 10.05321379 -52.7109375 2.0390625 C-36.60294349 -9.67119346 -16.98276936 -9.46072083 0 0 Z " fill="#FEFEFF" transform="translate(790.25,381.75)"/>
<path d="M0 0 C6.36691292 4.0145358 10.99311723 9.82570564 13.00390625 17.08203125 C14.56500974 25.78764439 13.9185134 34.19829395 8.99609375 41.6953125 C3.98444846 47.99765994 -1.12097445 50.98807883 -9.12109375 51.91015625 C-18.38936305 52.27416683 -25.27781169 51.03133912 -32.3984375 44.92578125 C-37.96995746 39.0960689 -39.68850449 32.40796677 -40 24.5 C-39.76384672 16.41945081 -36.83439487 9.89130196 -31.29296875 4.0078125 C-23.39455319 -2.87432837 -9.60204178 -4.20089328 0 0 Z " fill="#FFFFFF" transform="translate(594.5625,1087.5)"/>
</svg>
