<?xml version="1.0" encoding="UTF-8"?>
<svg version="1.1" xmlns="http://www.w3.org/2000/svg" width="1024" height="1024">
<path d="M0 0 C337.92 0 675.84 0 1024 0 C1024 337.92 1024 675.84 1024 1024 C686.08 1024 348.16 1024 0 1024 C0 686.08 0 348.16 0 0 Z " fill="#F8F8F9" transform="translate(0,0)"/>
<path d="M0 0 C3.48466717 2.51390575 6.75537781 5.18677888 10 8 C10.58523438 8.44214844 11.17046875 8.88429688 11.7734375 9.33984375 C29.16887813 22.77435071 39.48065027 45.85732617 43 67 C45.81704583 93.35701607 37.86320214 119.36194505 21.546875 140.12109375 C15.76012205 146.6812335 9.21664129 153.62750013 1.1484375 157.296875 C-1.77657876 158.63167115 -3.79443479 159.64831039 -6 162 C-8.41134229 173.0767007 -5.04787686 184.23843488 0.52734375 193.8203125 C2.64041606 196.94788372 5.07632016 199.70888137 7.64453125 202.46875 C9 204 9 204 9 205 C-2.29747563 206.31365996 -13.99340969 199.15655968 -23 193 C-28.15881152 188.89807966 -32.59675092 184.58535377 -36.625 179.375 C-38.819437 176.68363055 -38.819437 176.68363055 -41.99609375 175.69140625 C-44.09695845 175.94160375 -45.96683501 176.41855282 -48 177 C-66.81245025 180.80567501 -85.85364876 176.98383929 -103 169 C-103.99 168.34 -104.98 167.68 -106 167 C-104.72934167 163.188025 -103.21633051 162.50504161 -99.9375 160.25 C-77.91297519 144.55468786 -64.32817168 120.86888212 -59.5078125 94.24609375 C-57.52533889 79.69978124 -58.63608294 65.94029061 -63 52 C-63.28875 50.8965625 -63.5775 49.793125 -63.875 48.65625 C-67.27328678 36.15540935 -73.50276504 24.76278059 -82 15 C-82.68835938 14.18015625 -83.37671875 13.3603125 -84.0859375 12.515625 C-88.58159863 7.31012264 -93.30628361 2.94801742 -98.7578125 -1.23828125 C-101.40697181 -3.31976356 -103.69908394 -5.54568954 -106 -8 C-73.56012538 -26.23808619 -30.25782281 -20.00325889 0 0 Z " fill="#3EBACE" transform="translate(627,424)"/>
<path d="M0 0 C0.7017334 0.19682373 1.4034668 0.39364746 2.12646484 0.59643555 C6.90553397 2.02674672 10.87223086 4.01559857 15.125 6.625 C15.125 7.285 15.125 7.945 15.125 8.625 C13.56791628 9.85380108 11.95082798 11.00681251 10.3125 12.125 C-13.36496892 29.07212564 -27.43543331 53.20311279 -32.27734375 82.01953125 C-33.95480971 95.14053209 -32.7731012 108.02607376 -28.875 120.625 C-28.55917969 121.75679687 -28.24335938 122.88859375 -27.91796875 124.0546875 C-21.064703 146.96348395 -5.62255209 166.31686707 14.125 179.625 C13.795 180.615 13.465 181.605 13.125 182.625 C10.72109512 183.78613141 8.44168429 184.73619579 5.9375 185.625 C4.84284424 186.01582764 4.84284424 186.01582764 3.72607422 186.41455078 C-12.5707722 192.08070808 -30.30444167 193.88432528 -47.44140625 190.890625 C-50.81582607 190.26994477 -50.81582607 190.26994477 -52.94140625 192.03125 C-53.43511719 192.7221875 -53.92882812 193.413125 -54.4375 194.125 C-55.01628906 194.86878906 -55.59507812 195.61257813 -56.19140625 196.37890625 C-56.74699219 197.12011719 -57.30257812 197.86132812 -57.875 198.625 C-66.60294393 209.2149053 -80.70510221 216.34488779 -93.875 219.625 C-97.27734375 219.74609375 -97.27734375 219.74609375 -99.875 219.625 C-98.58487334 216.80017292 -97.19786866 214.7424188 -95.0625 212.5 C-87.12016204 203.45078364 -83.9615205 192.03247179 -84.11328125 180.1484375 C-84.56819191 176.56272887 -84.56819191 176.56272887 -86.98046875 174.4140625 C-89.75513338 172.69930718 -89.75513338 172.69930718 -92.79296875 171.22265625 C-97.90792328 168.57117792 -101.73712244 164.57573737 -105.875 160.625 C-106.55175781 160.03460937 -107.22851562 159.44421875 -107.92578125 158.8359375 C-118.69353455 149.03922407 -125.27156818 135.20512386 -129.875 121.625 C-130.2875 120.47 -130.7 119.315 -131.125 118.125 C-137.75046616 97.14435715 -134.42955862 73.18950918 -124.89355469 53.60986328 C-111.14361934 27.49021921 -87.91261837 8.94651707 -60 -0.125 C-40.11970102 -6.2315846 -19.86006831 -5.647586 0 0 Z " fill="#36B7CE" transform="translate(487.875,409.375)"/>
<path d="M0 0 C3 1 3 1 4.83203125 4.0703125 C5.50451377 5.41578443 6.16384533 6.76788004 6.8125 8.125 C7.3369873 9.20164917 7.3369873 9.20164917 7.87207031 10.30004883 C15.69228672 26.58859547 20.79117886 43.46950836 25 61 C25.20625 61.82113281 25.4125 62.64226562 25.625 63.48828125 C28.81784399 76.73359501 29.37417372 90.0084741 29.3125 103.5625 C29.30976578 104.81365601 29.30976578 104.81365601 29.30697632 106.09008789 C29.25858826 119.27307544 28.57054486 132.04006332 26 145 C25.83902832 145.86834473 25.67805664 146.73668945 25.51220703 147.63134766 C21.68066224 167.98895981 14.98024109 187.95508255 5.01367188 206.14941406 C3.96367405 208.06631761 2.94279495 209.99716398 1.921875 211.9296875 C-12.36557894 238.55172756 -32.56734856 262.2011203 -57 280 C-57.62100586 280.4547168 -58.24201172 280.90943359 -58.88183594 281.37792969 C-77.17135652 294.65153299 -97.52455766 305.8306069 -119 313 C-119.845625 313.31324219 -120.69125 313.62648438 -121.5625 313.94921875 C-128.17888872 316.32698344 -134.91077682 318.032803 -141.75 319.625 C-143.05191284 319.93425415 -143.05191284 319.93425415 -144.38012695 320.24975586 C-159.72123961 323.71179401 -174.8372441 324.40810093 -190.5 324.375 C-191.4704425 324.37445618 -192.44088501 324.37391235 -193.44073486 324.37335205 C-208.33323398 324.33501911 -222.48730092 323.61123018 -237 320 C-237.93344238 319.77505859 -238.86688477 319.55011719 -239.82861328 319.31835938 C-246.28054669 317.73776087 -252.64827382 315.94202491 -259 314 C-259.73202637 313.78150391 -260.46405273 313.56300781 -261.21826172 313.33789062 C-288.44942212 305.06867583 -313.63064763 289.5739089 -335 271 C-335.55268555 270.52175781 -336.10537109 270.04351563 -336.67480469 269.55078125 C-355.59700403 253.04442777 -377.93377685 229.19866945 -386 205 C-385.09636719 204.72285156 -384.19273437 204.44570313 -383.26171875 204.16015625 C-382.08222656 203.79792969 -380.90273438 203.43570313 -379.6875 203.0625 C-377.92986328 202.52302734 -377.92986328 202.52302734 -376.13671875 201.97265625 C-374.08446023 201.33627721 -372.03839863 200.67946621 -370 200 C-370 199.34 -370 198.68 -370 198 C-369.34 198 -368.68 198 -368 198 C-367.47792969 198.98097656 -366.95585937 199.96195313 -366.41796875 200.97265625 C-361.01539811 210.94672865 -354.94038807 220.03862573 -348 229 C-347.30648437 229.91910156 -346.61296875 230.83820313 -345.8984375 231.78515625 C-325.69483639 257.64420555 -299.44399484 275.25306713 -270 289 C-269.37577148 289.2985791 -268.75154297 289.5971582 -268.10839844 289.90478516 C-248.25863503 299.27800076 -225.8895434 304.25774861 -204 305 C-202.74413086 305.04769531 -201.48826172 305.09539062 -200.19433594 305.14453125 C-181.1735557 305.80418452 -163.51567726 304.88966981 -145 300 C-144.05817871 299.75942871 -143.11635742 299.51885742 -142.14599609 299.27099609 C-114.33282109 292.09511031 -88.56903707 279.84237327 -66 262 C-65.12214844 261.32710937 -64.24429687 260.65421875 -63.33984375 259.9609375 C-41.91562497 243.11184644 -25.81638118 221.87270246 -13 198 C-12.39285156 196.89269531 -11.78570313 195.78539062 -11.16015625 194.64453125 C-3.11001119 179.3656845 2.36283716 162.9791062 5.59277344 146.04052734 C6.16048063 143.19586506 6.83826376 140.37864462 7.52197266 137.55981445 C8.82253905 130.5953412 9.17285811 123.62990789 9.23828125 116.55859375 C9.25283607 115.24244331 9.25283607 115.24244331 9.26768494 113.89970398 C9.2924875 111.07892228 9.30519342 108.25837965 9.3125 105.4375 C9.31511841 104.47624207 9.31773682 103.51498413 9.32043457 102.52459717 C9.32615038 82.95571384 7.57185311 64.56352133 1 46 C0.72800781 45.09636719 0.45601562 44.19273437 0.17578125 43.26171875 C-2.17945009 35.55659541 -5.44763316 28.32781163 -8.8269043 21.02905273 C-10.80723911 16.73993939 -12.62683489 12.53292137 -14 8 C-13.15695312 7.59007812 -12.31390625 7.18015625 -11.4453125 6.7578125 C-10.34960938 6.21898437 -9.25390625 5.68015625 -8.125 5.125 C-7.03445313 4.59132813 -5.94390625 4.05765625 -4.8203125 3.5078125 C-1.96117453 2.15464063 -1.96117453 2.15464063 0 0 Z " fill="#B11B34" transform="translate(703,410)"/>
<path d="M0 0 C3.43089616 0.02399747 6.86103107 0.02048035 10.29199219 0.01391602 C12.49772596 0.01948247 14.70345651 0.02658578 16.90917969 0.03540039 C17.92273529 0.03448898 18.93629089 0.03357758 19.9805603 0.03263855 C25.39816298 0.08684035 29.8782436 0.59958365 35.01074219 2.33618164 C36.48487698 2.51078305 37.96548957 2.64044482 39.44824219 2.71118164 C55.32159589 4.086229 71.56031144 9.96317116 86.01074219 16.33618164 C86.6862915 16.62944336 87.36184082 16.92270508 88.05786133 17.22485352 C107.48769371 25.7284309 125.84594952 36.5493084 142.01074219 50.33618164 C143.16554488 51.30640661 144.32050509 52.2764441 145.47558594 53.24633789 C163.37976673 68.35593831 163.37976673 68.35593831 165.01074219 74.33618164 C164.2746875 74.58110352 163.53863281 74.82602539 162.78027344 75.07836914 C159.71067935 76.47245842 158.01168966 78.03010124 155.69824219 80.46118164 C155.00085938 81.18563477 154.30347656 81.91008789 153.58496094 82.65649414 C153.06546875 83.21079102 152.54597656 83.76508789 152.01074219 84.33618164 C149.03523589 83.00529974 147.0319152 81.57319535 144.79589844 79.21118164 C144.1990625 78.59202881 143.60222656 77.97287598 142.98730469 77.33496094 C142.35566406 76.67536377 141.72402344 76.0157666 141.07324219 75.33618164 C134.48468022 68.61728768 127.7228866 62.75723286 120.01074219 57.33618164 C119.43388672 56.92561523 118.85703125 56.51504883 118.26269531 56.09204102 C91.06637796 36.86858543 59.08107934 24.35305043 26.01074219 20.33618164 C24.77122803 20.16562256 23.53171387 19.99506348 22.25463867 19.81933594 C18.16602438 19.31041977 14.09715378 19.14294097 9.97949219 19.09790039 C9.23418243 19.08819717 8.48887268 19.07849396 7.72097778 19.0684967 C5.31751041 19.04366099 2.91432497 19.03097664 0.51074219 19.02368164 C-0.31161926 19.02106323 -1.13398071 19.01844482 -1.98126221 19.01574707 C-15.98373077 19.01098097 -29.31219431 20.17066202 -42.98925781 23.33618164 C-43.69018555 23.49103027 -44.39111328 23.64587891 -45.11328125 23.80541992 C-79.58388316 31.55229736 -110.8908466 48.41252626 -136.75878906 72.29711914 C-138.80827737 74.17073192 -140.91466374 75.93936691 -143.05175781 77.71118164 C-148.01556024 82.03578215 -151.92255311 87.18645681 -155.98925781 92.33618164 C-156.64796875 93.11735352 -157.30667969 93.89852539 -157.98535156 94.70336914 C-171.04825069 110.31576769 -181.20666017 129.21069429 -187.98925781 148.33618164 C-188.385 149.30297852 -188.78074219 150.26977539 -189.18847656 151.26586914 C-192.44987685 159.51710897 -194.37233834 167.92607697 -196.23925781 176.58618164 C-196.49763428 177.78251221 -196.75601074 178.97884277 -197.0222168 180.21142578 C-201.27315895 200.60773238 -201.26489118 221.81867772 -198.67675781 242.46118164 C-198.55913086 243.4004248 -198.44150391 244.33966797 -198.3203125 245.30737305 C-197.52592538 250.97474612 -196.25253102 256.34904524 -194.58618164 261.82397461 C-193.96991685 264.41757981 -193.88305089 266.68071106 -193.98925781 269.33618164 C-194.55773437 269.36196289 -195.12621094 269.38774414 -195.71191406 269.41430664 C-201.5524253 269.84332583 -205.05985175 271.21757781 -209.98925781 274.33618164 C-210.64925781 274.33618164 -211.30925781 274.33618164 -211.98925781 274.33618164 C-217.11806185 256.68476468 -219.49918531 239.88100933 -219.38037109 221.47851562 C-219.36432889 218.53671516 -219.38029741 215.59629953 -219.39941406 212.65454102 C-219.41918589 195.73374013 -217.75968386 179.06467063 -213.23925781 162.71118164 C-212.85519775 161.28890259 -212.85519775 161.28890259 -212.46337891 159.83789062 C-208.22841953 144.57391259 -202.49999757 130.27053208 -194.98925781 116.33618164 C-194.374375 115.17860352 -193.75949219 114.02102539 -193.12597656 112.82836914 C-172.87607891 76.01799617 -142.09095885 47.25089313 -105.98925781 26.33618164 C-104.41337891 25.41385742 -104.41337891 25.41385742 -102.80566406 24.47290039 C-101.855625 23.9327832 -100.90558594 23.39266602 -99.92675781 22.83618164 C-99.11078125 22.37211914 -98.29480469 21.90805664 -97.45410156 21.42993164 C-94.64199038 20.18208516 -92.03076926 19.72464754 -88.98925781 19.33618164 C-88.98925781 18.67618164 -88.98925781 18.01618164 -88.98925781 17.33618164 C-59.31390225 6.12915538 -31.82877526 -0.23846115 0 0 Z " fill="#EA5B21" transform="translate(511.9892578125,299.663818359375)"/>
<path d="M0 0 C3.20819171 2.0944044 6.08975828 4.513767 9 7 C9.75796875 7.62390625 10.5159375 8.2478125 11.296875 8.890625 C26.15904132 21.49784194 38.01466155 40.71945507 40.71875 60.24609375 C41.76635437 74.22870203 42.24108457 88.50564001 38 102 C37.70996094 102.94166016 37.70996094 102.94166016 37.4140625 103.90234375 C30.96733102 124.31699344 18.3859974 140.26005698 1.0078125 152.5859375 C-2.65337939 154.30717317 -4.17789715 154.22165356 -8 153 C-27.64096879 141.87205467 -40.82174856 121.11857222 -47.2578125 99.90234375 C-53.43723478 75.7375503 -49.89753314 51.9232381 -37.42602539 30.30957031 C-31.02123529 19.78731081 -14.0094501 -4.4935972 0 0 Z " fill="#49C5D6" transform="translate(516,427)"/>
<path d="M0 0 C4.01788 2.36476701 7.13213474 4.5636082 8.8046875 9.05859375 C9.34005176 14.67991848 9.01634995 18.24110008 5.8046875 23.05859375 C1.8998357 27.00612153 -1.33276308 28.9033813 -6.9453125 29.37109375 C-11.49358891 29.27912493 -14.79979065 28.1274578 -18.1953125 25.05859375 C-21.61956567 20.40201348 -23.05358901 15.8519602 -22.1953125 10.05859375 C-17.74170506 1.64622413 -9.53962539 -4.0908358 0 0 Z " fill="#D93321" transform="translate(692.1953125,380.94140625)"/>
<path d="M0 0 C3.3302567 3.36616244 5.80126289 6.34385744 6.375 11.125 C5.81345373 16.92764478 3.15652591 21.03375578 -1.125 24.9375 C-5.5835235 27.46399665 -10.01341582 27.58916834 -15 27 C-19.87412573 24.79284873 -22.20845565 21.93057 -24.29296875 17.140625 C-25.47273181 13.56874568 -26.06276606 10.67008545 -25 7 C-22.48127147 3.01787612 -19.54306153 -0.07416308 -15.5 -2.5 C-9.50382883 -3.69923423 -5.17311195 -3.37376866 0 0 Z " fill="#DA3D26" transform="translate(326,580)"/>
<path d="M0 0 C15 0 15 0 16.6875 1.625 C18.41496376 4.7508868 18.57579666 6.47324544 18 10 C15.95703125 12.703125 15.95703125 12.703125 13 15 C10.11856194 15.20603029 7.98359279 15.18442048 5.1875 14.8125 C4.14819336 14.70711914 4.14819336 14.70711914 3.08789062 14.59960938 C1.38925516 14.42388847 -0.3059164 14.2152232 -2 14 C-2.05437607 12.41705218 -2.09296271 10.83355744 -2.125 9.25 C-2.14820313 8.36828125 -2.17140625 7.4865625 -2.1953125 6.578125 C-1.99139502 3.8864142 -1.36551721 2.30095026 0 0 Z " fill="#E34C26" transform="translate(681,388)"/>
<path d="M0 0 C4.0260451 2.35346019 7.13993628 4.5596725 8.8125 9.0546875 C9.34786426 14.67601223 9.02416245 18.23719383 5.8125 23.0546875 C2.60103404 26.30125145 -0.48419081 28.92546622 -5.23046875 29.15234375 C-5.93816406 29.14074219 -6.64585937 29.12914062 -7.375 29.1171875 C-9.2621875 29.08625 -9.2621875 29.08625 -11.1875 29.0546875 C-11.1875 28.3946875 -11.1875 27.7346875 -11.1875 27.0546875 C-10.37925781 26.91933594 -9.57101562 26.78398437 -8.73828125 26.64453125 C-1.43308842 25.3300313 -1.43308842 25.3300313 4.0625 20.7421875 C5.93459034 17.49538876 6.27024299 14.80818003 5.8125 11.0546875 C4.8225 10.7246875 3.8325 10.3946875 2.8125 10.0546875 C2.8125 9.3946875 2.8125 8.7346875 2.8125 8.0546875 C-1.8075 8.0546875 -6.4275 8.0546875 -11.1875 8.0546875 C-11.5175 9.0446875 -11.8475 10.0346875 -12.1875 11.0546875 C-13.5075 11.0546875 -14.8275 11.0546875 -16.1875 11.0546875 C-16.55673077 6.50084135 -16.55673077 6.50084135 -14.6875 4.2421875 C-13.945 3.654375 -13.945 3.654375 -13.1875 3.0546875 C-13.8475 2.3946875 -14.5075 1.7346875 -15.1875 1.0546875 C-10.20085084 -1.43863708 -5.16741999 -2.23306364 0 0 Z " fill="#DA3825" transform="translate(692.1875,380.9453125)"/>
<path d="M0 0 C3.415759 1.44338489 5.36026263 3.24894168 7.75 6.0625 C8.67039062 7.13177734 8.67039062 7.13177734 9.609375 8.22265625 C11 10 11 10 11 11 C4.46339314 11.58103172 -1.09262683 9.80038105 -7 7 C-7.33 6.34 -7.66 5.68 -8 5 C-6.865625 4.54625 -5.73125 4.0925 -4.5625 3.625 C-0.95278308 2.42904194 -0.95278308 2.42904194 0 0 Z " fill="#1B8FB0" transform="translate(625,618)"/>
<path d="M0 0 C4.91724138 4.75862069 4.91724138 4.75862069 5.25 9.75 C5.16417878 14.49591372 3.98643418 17.99185616 0.5703125 21.4453125 C-3.27160298 24.79026379 -6.15177332 26.1450529 -11.1875 26.0625 C-13.0746875 26.0315625 -13.0746875 26.0315625 -15 26 C-15 25.34 -15 24.68 -15 24 C-14.19175781 23.86464844 -13.38351562 23.72929687 -12.55078125 23.58984375 C-5.24558842 22.2753438 -5.24558842 22.2753438 0.25 17.6875 C2.1186972 14.39470271 2.58999014 11.79279379 2 8 C1.36525925 6.65117592 0.70151152 5.3153341 0 4 C0 2.68 0 1.36 0 0 Z " fill="#D7392B" transform="translate(696,384)"/>
<path d="M0 0 C15.51 0 31.02 0 47 0 C47 0.66 47 1.32 47 2 C36.32978048 2.86032949 25.76248343 3.12737806 15.0625 3.0625 C13.58919426 3.057465 12.11588682 3.0529057 10.64257812 3.04882812 C7.0950156 3.03800377 3.54751948 3.02085455 0 3 C0 2.01 0 1.02 0 0 Z " fill="#B63659" transform="translate(491,715)"/>
<path d="M0 0 C1.19278564 -0.0009668 1.19278564 -0.0009668 2.40966797 -0.00195312 C7.92853181 0.04779693 12.8717631 0.61246685 18.1875 2.1875 C18.1875 2.5175 18.1875 2.8475 18.1875 3.1875 C13.80926083 3.23688149 9.43116854 3.2732104 5.05273438 3.29736328 C3.5627968 3.30743043 2.07287903 3.32108518 0.58300781 3.33837891 C-1.55669028 3.36259653 -3.69612753 3.37397564 -5.8359375 3.3828125 C-7.12419434 3.39328613 -8.41245117 3.40375977 -9.73974609 3.41455078 C-12.8125 3.1875 -12.8125 3.1875 -14.8125 1.1875 C-9.83294697 0.19476614 -5.05498251 -0.0042204 0 0 Z " fill="#15A9C1" transform="translate(566.8125,405.8125)"/>
<path d="M0 0 C0.66 0 1.32 0 2 0 C2.33 6.27 2.66 12.54 3 19 C-1 17 -1 17 -2.25 14.8125 C-3.49616637 10.13937612 -3.69771129 6.49056502 -1.625 2.0625 C-1.08875 1.381875 -0.5525 0.70125 0 0 Z " fill="#CA1913" transform="translate(673,386)"/>
<path d="M0 0 C0.66 1.32 1.32 2.64 2 4 C1.05125 4.268125 0.1025 4.53625 -0.875 4.8125 C-4.25267273 5.74986588 -4.25267273 5.74986588 -6 9 C-6 10.32 -6 11.64 -6 13 C-7.1446875 13.1546875 -7.1446875 13.1546875 -8.3125 13.3125 C-11.21655911 14.05539884 -12.28995766 14.56993983 -14 17 C-14 18.32 -14 19.64 -14 21 C-15.98 20.67 -17.96 20.34 -20 20 C-16.149574 15.29392378 -12.03851366 10.92889387 -7.75 6.625 C-7.21858398 6.08907227 -6.68716797 5.55314453 -6.13964844 5.00097656 C-2.24753818 1.12376909 -2.24753818 1.12376909 0 0 Z " fill="#9D0F3A" transform="translate(666,646)"/>
<path d="M0 0 C0.99 0.33 1.98 0.66 3 1 C2.03894308 3.49676642 1.5456872 4.74051238 -0.92016602 5.91308594 C-1.69030029 6.10161133 -2.46043457 6.29013672 -3.25390625 6.484375 C-4.10919922 6.69707031 -4.96449219 6.90976562 -5.84570312 7.12890625 C-7.19051758 7.43634766 -7.19051758 7.43634766 -8.5625 7.75 C-9.43197266 7.97042969 -10.30144531 8.19085937 -11.19726562 8.41796875 C-16.93178628 9.79493792 -22.10761694 10.21535613 -28 10 C-27.67 9.01 -27.34 8.02 -27 7 C-25.7934375 6.86722656 -24.586875 6.73445312 -23.34375 6.59765625 C-21.72916336 6.41930075 -20.11458021 6.24091364 -18.5 6.0625 C-17.31277344 5.93198242 -17.31277344 5.93198242 -16.1015625 5.79882812 C-11.06184897 5.24115491 -6.02989934 4.64027388 -1 4 C-0.67 2.68 -0.34 1.36 0 0 Z " fill="#960E37" transform="translate(574,721)"/>
<path d="M0 0 C0.75595459 0.04374756 1.51190918 0.08749512 2.29077148 0.13256836 C3.12157227 0.17704102 3.95237305 0.22151367 4.80834961 0.26733398 C5.66750977 0.33500977 6.52666992 0.40268555 7.41186523 0.47241211 C8.27489258 0.51301758 9.13791992 0.55362305 10.02709961 0.59545898 C16.44907194 1.00961882 16.44907194 1.00961882 19.84936523 4.40991211 C11.26936523 4.40991211 2.68936523 4.40991211 -6.15063477 4.40991211 C-2.15063477 0.40991211 -2.15063477 0.40991211 0 0 Z " fill="#9D153D" transform="translate(506.150634765625,729.590087890625)"/>
<path d="M0 0 C0.66 0 1.32 0 2 0 C1.85775413 2.52108103 1.71129879 5.04180403 1.5625 7.5625 C1.52318359 8.26697266 1.48386719 8.97144531 1.44335938 9.69726562 C1.17481721 14.1798541 0.69383803 18.56293497 0 23 C-0.33 23 -0.66 23 -1 23 C-2.86355856 15.77871056 -2.17041879 8.28260581 -1 1 C-0.67 0.67 -0.34 0.34 0 0 Z " fill="#E2D3D4" transform="translate(711,529)"/>
<path d="M0 0 C0.66 0 1.32 0 2 0 C2.84191782 2.9248633 3.11819313 5.50741656 3.09765625 8.546875 C3.09443359 9.39121094 3.09121094 10.23554688 3.08789062 11.10546875 C3.07951172 11.97816406 3.07113281 12.85085938 3.0625 13.75 C3.05798828 14.63816406 3.05347656 15.52632813 3.04882812 16.44140625 C3.037074 18.62767329 3.02064249 20.81380179 3 23 C2.01 23.33 1.02 23.66 0 24 C0 16.08 0 8.16 0 0 Z " fill="#37C2D3" transform="translate(554,487)"/>
<path d="M0 0 C3.62578134 0.47337332 7.25046578 0.95467791 10.875 1.4375 C12.42380859 1.63956055 12.42380859 1.63956055 14.00390625 1.84570312 C15.48310547 2.04389648 15.48310547 2.04389648 16.9921875 2.24609375 C17.90339355 2.36654053 18.81459961 2.4869873 19.75341797 2.61108398 C22 3 22 3 24 4 C24 4.66 24 5.32 24 6 C16.1418209 5.64281004 8.28373617 5.25277961 1 2 C0.67 1.34 0.34 0.68 0 0 Z " fill="#9B1133" transform="translate(455,725)"/>
<path d="M0 0 C2.31 0 4.62 0 7 0 C6.01 0.495 6.01 0.495 5 1 C5 1.66 5 2.32 5 3 C0.52421488 5.31293038 -3.43878518 5.06054199 -8.3125 4.625 C-9.05306641 4.56828125 -9.79363281 4.5115625 -10.55664062 4.453125 C-12.37193743 4.31258589 -14.18611597 4.15772905 -16 4 C-15.67 3.34 -15.34 2.68 -15 2 C-10.05 2 -5.1 2 0 2 C0 1.34 0 0.68 0 0 Z " fill="#9C0C35" transform="translate(538,715)"/>
<path d="M0 0 C0.80859375 1.671875 0.80859375 1.671875 1 4 C-1.08984375 6.578125 -1.08984375 6.578125 -3.9375 9.25 C-4.87464844 10.14203125 -5.81179688 11.0340625 -6.77734375 11.953125 C-7.51082031 12.62859375 -8.24429688 13.3040625 -9 14 C-9.66 12.68 -10.32 11.36 -11 10 C-10.45730469 9.52949219 -9.91460938 9.05898438 -9.35546875 8.57421875 C-8.64003906 7.95160156 -7.92460938 7.32898438 -7.1875 6.6875 C-6.47980469 6.07261719 -5.77210938 5.45773437 -5.04296875 4.82421875 C-3.29863261 3.26665665 -1.63221959 1.67341125 0 0 Z " fill="#931C41" transform="translate(677,657)"/>
<path d="M0 0 C2.66931006 5.12552394 4.35375916 10.16297391 4 16 C1.69 16 -0.62 16 -3 16 C-2.38722388 13.03824877 -1.74627478 11.61941217 0 9 C0.24107326 6.71351152 0.24107326 6.71351152 0.125 4.3125 C0.10695313 3.50425781 0.08890625 2.69601562 0.0703125 1.86328125 C0.04710937 1.24839844 0.02390625 0.63351562 0 0 Z " fill="#E15E40" transform="translate(314,553)"/>
<path d="M0 0 C0.66 0.33 1.32 0.66 2 1 C1.938125 1.99 1.87625 2.98 1.8125 4 C1.78157117 7.81197885 2.86728817 10.67039329 4.44140625 14.10546875 C5.12560615 16.42600688 4.65112316 17.70962747 4 20 C2.82887054 17.37690901 1.66294036 14.75171858 0.5 12.125 C0.16613281 11.37863281 -0.16773438 10.63226563 -0.51171875 9.86328125 C-0.82753906 9.14785156 -1.14335938 8.43242187 -1.46875 7.6953125 C-1.76201172 7.03547363 -2.05527344 6.37563477 -2.35742188 5.69580078 C-3 4 -3 4 -3 2 C-2.01 1.34 -1.02 0.68 0 0 Z " fill="#C4201F" transform="translate(696,424)"/>
<path d="M0 0 C0 0.99 0 1.98 0 3 C-5.29230769 6.07692308 -5.29230769 6.07692308 -8.875 5.6875 C-9.57625 5.460625 -10.2775 5.23375 -11 5 C-11.33 3.68 -11.66 2.36 -12 1 C-6.06 0.505 -6.06 0.505 0 0 Z " fill="#900837" transform="translate(606,711)"/>
<path d="M0 0 C0 0.66 0 1.32 0 2 C-5.0771923 2.84619872 -9.84968375 3.34335442 -15 3 C-17 1.5 -17 1.5 -18 0 C-11.76817361 -1.03863773 -6.25307239 -0.83288874 0 0 Z " fill="#AA264C" transform="translate(541,731)"/>
<path d="M0 0 C4.94003331 4.7806774 4.94003331 4.7806774 5.1875 9.8125 C5.15598345 13.27301752 4.56594316 15.86811369 3 19 C2.34 18.67 1.68 18.34 1 18 C1.09539063 17.32453125 1.19078125 16.6490625 1.2890625 15.953125 C1.39992188 15.06109375 1.51078125 14.1690625 1.625 13.25 C1.74101563 12.36828125 1.85703125 11.4865625 1.9765625 10.578125 C2.00258243 7.7159332 1.32103136 6.48071539 0 4 C0 2.68 0 1.36 0 0 Z " fill="#D34236" transform="translate(696,384)"/>
<path d="M0 0 C0 0.99 0 1.98 0 3 C-1 4 -1 4 -3.0390625 4.1328125 C-8.13546067 4.11741553 -12.9773694 3.87350097 -18 3 C-18 2.67 -18 2.34 -18 2 C-9.09 1.01 -9.09 1.01 0 0 Z " fill="#A71C41" transform="translate(501,730)"/>
<path d="M0 0 C0.66 0.33 1.32 0.66 2 1 C0.93458984 1.92232422 0.93458984 1.92232422 -0.15234375 2.86328125 C-1.07144531 3.67152344 -1.99054688 4.47976563 -2.9375 5.3125 C-3.85402344 6.11300781 -4.77054687 6.91351563 -5.71484375 7.73828125 C-8.20513976 9.86238922 -8.20513976 9.86238922 -9 13 C-11.0625 13.6875 -11.0625 13.6875 -13 14 C-12.52400411 9.7548938 -10.18784481 8.02531723 -7.0625 5.3125 C-6.16660156 4.52488281 -5.27070313 3.73726563 -4.34765625 2.92578125 C-2 1 -2 1 0 0 Z " fill="#1FA5C0" transform="translate(395,426)"/>
<path d="M0 0 C1.54897985 3.0979597 0.83239539 6.26216552 0.5625 9.625 C0.51029297 10.33140625 0.45808594 11.0378125 0.40429688 11.765625 C0.27458793 13.51079987 0.13795046 15.25545725 0 17 C-2.71611123 14.28388877 -2.96848653 12.42543185 -3.25 8.625 C-2.98698447 4.81127485 -2.21700828 3.04838638 0 0 Z " fill="#D74035" transform="translate(673,386)"/>
<path d="M0 0 C1.27617188 0.02320313 2.55234375 0.04640625 3.8671875 0.0703125 C5.78917969 0.09738281 5.78917969 0.09738281 7.75 0.125 C9.23113281 0.15980469 9.23113281 0.15980469 10.7421875 0.1953125 C10.7421875 0.8553125 10.7421875 1.5153125 10.7421875 2.1953125 C5.16508102 3.26326906 0.34781792 3.02153921 -5.2578125 2.1953125 C-3.2578125 0.1953125 -3.2578125 0.1953125 0 0 Z " fill="#980636" transform="translate(565.2578125,709.8046875)"/>
<path d="M0 0 C-1.0975223 2.99324263 -1.67682892 3.84610901 -4.625 5.25 C-5.40875 5.4975 -6.1925 5.745 -7 6 C-8 3 -8 3 -8 0 C-2.25 -1.125 -2.25 -1.125 0 0 Z " fill="#880B33" transform="translate(644,689)"/>
<path d="M0 0 C4.62 0 9.24 0 14 0 C11.33684806 2.66315194 9.34655932 2.94426493 5.640625 3.09765625 C4.85171875 3.08605469 4.0628125 3.07445312 3.25 3.0625 C2.45078125 3.05347656 1.6515625 3.04445313 0.828125 3.03515625 C0.22484375 3.02355469 -0.3784375 3.01195312 -1 3 C-0.67 2.01 -0.34 1.02 0 0 Z " fill="#920930" transform="translate(547,728)"/>
<path d="M0 0 C0.33 0.99 0.66 1.98 1 3 C-0.43359375 5.04296875 -0.43359375 5.04296875 -2.4375 7.1875 C-3.09621094 7.90292969 -3.75492188 8.61835937 -4.43359375 9.35546875 C-5.20896484 10.16951172 -5.20896484 10.16951172 -6 11 C-6.99 10.67 -7.98 10.34 -9 10 C-8.24172908 8.82512964 -7.46792245 7.66027408 -6.6875 6.5 C-6.25824219 5.8503125 -5.82898438 5.200625 -5.38671875 4.53125 C-4.92910156 4.0259375 -4.47148438 3.520625 -4 3 C-3.01 3 -2.02 3 -1 3 C-0.67 2.01 -0.34 1.02 0 0 Z " fill="#2EB6CD" transform="translate(536,558)"/>
<path d="M0 0 C0.763125 0.309375 1.52625 0.61875 2.3125 0.9375 C4.18789677 1.67893593 6.08684652 2.36228217 8 3 C9.03435556 4.64556566 10.02763513 6.3170608 11 8 C12.60778647 10.05680792 14.29639308 12.0201325 16 14 C11.89610729 12.33652892 8.93707246 9.41489664 5.75 6.4375 C5.19570313 5.93025391 4.64140625 5.42300781 4.0703125 4.90039062 C2.69075248 3.6244675 1.34240103 2.31496202 0 1 C0 0.67 0 0.34 0 0 Z " fill="#D9482C" transform="translate(639,361)"/>
<path d="M0 0 C0 0.99 0 1.98 0 3 C-3.69541586 3.95024979 -6.30458414 3.95024979 -10 3 C-10 2.34 -10 1.68 -10 1 C-6.52674819 -0.1577506 -3.63932552 -0.06866652 0 0 Z " fill="#A00826" transform="translate(432,712)"/>
<path d="M0 0 C0 3.63 0 7.26 0 11 C-0.99 11.495 -0.99 11.495 -2 12 C-3.28317892 8.15046324 -3.06643637 5.05261865 -3 1 C-1 0 -1 0 0 0 Z " fill="#AE151E" transform="translate(713,471)"/>
<path d="M0 0 C1.1875 1.5625 1.1875 1.5625 2 4 C-0.24489796 10.62244898 -0.24489796 10.62244898 -3 12 C-3.34833144 7.12335991 -2.41685712 4.22949995 0 0 Z " fill="#21A4BF" transform="translate(359,476)"/>
<path d="M0 0 C2 2 2 2 2.1953125 4.6015625 C2.17210937 5.59929688 2.14890625 6.59703125 2.125 7.625 C2.10695313 8.62789062 2.08890625 9.63078125 2.0703125 10.6640625 C2.03550781 11.82035156 2.03550781 11.82035156 2 13 C1.01 13 0.02 13 -1 13 C-1.02696365 11.20841511 -1.04637917 9.41671527 -1.0625 7.625 C-1.07410156 6.62726562 -1.08570313 5.62953125 -1.09765625 4.6015625 C-1 2 -1 2 0 0 Z " fill="#DD5330" transform="translate(294,528)"/>
<path d="M0 0 C2.33333823 2.12121657 3.9148886 4.01594365 5 7 C4.625 9.25 4.625 9.25 4 11 C3.67 9.68 3.34 8.36 3 7 C2.34 7 1.68 7 1 7 C0.67 7.99 0.34 8.98 0 10 C-1.125 2.25 -1.125 2.25 0 0 Z " fill="#35BBCF" transform="translate(546,461)"/>
<path d="M0 0 C4.82360189 -0.19294408 8.49646738 0.24252386 13 2 C12.67 2.66 12.34 3.32 12 4 C3.42857143 3.28571429 3.42857143 3.28571429 0 0 Z " fill="#A61131" transform="translate(440,721)"/>
<path d="M0 0 C0.33 0 0.66 0 1 0 C2.12862175 5.36095333 2.09688221 10.55306686 2 16 C1.67 16 1.34 16 1 16 C0.67 14.35 0.34 12.7 0 11 C-0.33 11 -0.66 11 -1 11 C-1.125 3.375 -1.125 3.375 0 0 Z " fill="#E3491F" transform="translate(294,492)"/>
<path d="M0 0 C2.125 0.375 2.125 0.375 4 1 C3.51917969 1.34675781 3.03835938 1.69351562 2.54296875 2.05078125 C0.24641888 4.95199235 0.47973801 7.54171147 0.3125 11.1875 C0.24675781 12.45980469 0.18101562 13.73210937 0.11328125 15.04296875 C0.05720703 16.50669922 0.05720703 16.50669922 0 18 C-0.33 18 -0.66 18 -1 18 C-1.22119939 15.37549914 -1.42746669 12.75129514 -1.625 10.125 C-1.68945312 9.37863281 -1.75390625 8.63226563 -1.8203125 7.86328125 C-1.96087365 5.9129953 -1.98759849 3.95530533 -2 2 C-1.34 1.34 -0.68 0.68 0 0 Z " fill="#D5291D" transform="translate(676,383)"/>
<path d="M0 0 C0.33 0.99 0.66 1.98 1 3 C-0.43359375 5.04296875 -0.43359375 5.04296875 -2.4375 7.1875 C-3.09621094 7.90292969 -3.75492188 8.61835937 -4.43359375 9.35546875 C-4.95050781 9.89816406 -5.46742188 10.44085937 -6 11 C-6.33 10.34 -6.66 9.68 -7 9 C-2.85714286 2.57142857 -2.85714286 2.57142857 0 0 Z " fill="#9D0D38" transform="translate(683,623)"/>
<path d="M0 0 C-1.04874998 2.62187494 -1.64931313 3.79371361 -4.125 5.25 C-4.74375 5.4975 -5.3625 5.745 -6 6 C-6.33 4.35 -6.66 2.7 -7 1 C-2.25 0 -2.25 0 0 0 Z " fill="#1C97B8" transform="translate(431,605)"/>
<path d="M0 0 C-0.55774272 3.23490776 -1.37211508 4.97855006 -4 7 C-4.99 7 -5.98 7 -7 7 C-7 6.01 -7 5.02 -7 4 C-2.65714286 0 -2.65714286 0 0 0 Z " fill="#28AEC7" transform="translate(485,429)"/>
<path d="M0 0 C0.66 0.33 1.32 0.66 2 1 C0.92250558 1.82022749 -0.16229508 2.63086169 -1.25 3.4375 C-1.85328125 3.88996094 -2.4565625 4.34242188 -3.078125 4.80859375 C-5.10777048 6.06680893 -6.6263939 6.73027203 -9 7 C-9.66 6.34 -10.32 5.68 -11 5 C-8.36 4.34 -5.72 3.68 -3 3 C-3 2.34 -3 1.68 -3 1 C-2.01 0.67 -1.02 0.34 0 0 Z " fill="#F17F42" transform="translate(426,316)"/>
<path d="M0 0 C0.33 0 0.66 0 1 0 C1.19573608 1.43640171 1.38127816 2.87419504 1.5625 4.3125 C1.66691406 5.11300781 1.77132813 5.91351562 1.87890625 6.73828125 C2 9 2 9 1 12 C0.34 12 -0.32 12 -1 12 C-2.14637376 7.54187984 -2.07795422 4.15590845 0 0 Z " fill="#35BDD1" transform="translate(477,533)"/>
<path d="M0 0 C0.66 0.99 1.32 1.98 2 3 C0.02 4.98 -1.96 6.96 -4 9 C-4.66 8.67 -5.32 8.34 -6 8 C-4.02 5.36 -2.04 2.72 0 0 Z " fill="#F06D2A" transform="translate(338,384)"/>
<path d="M0 0 C3 0.1875 3 0.1875 5 1.1875 C5 1.8475 5 2.5075 5 3.1875 C1.7 2.8575 -1.6 2.5275 -5 2.1875 C-3 0.1875 -3 0.1875 0 0 Z " fill="#930728" transform="translate(474,727.8125)"/>
<path d="M0 0 C0.66 1.32 1.32 2.64 2 4 C-1.75 7 -1.75 7 -4 7 C-3.43628586 3.73045798 -2.50037734 2.17424117 0 0 Z " fill="#DB3C22" transform="translate(304,567)"/>
<path d="M0 0 C0 0.33 0 0.66 0 1 C-5.15171623 1.09038099 -9.91913204 0.84681133 -15 0 C-15 -0.33 -15 -0.66 -15 -1 C-9.53891111 -2.4002792 -5.30723432 -1.42705634 0 0 Z " fill="#B54A69" transform="translate(498,733)"/>
<path d="M0 0 C2.64 0 5.28 0 8 0 C7.67 0.99 7.34 1.98 7 3 C5.02 3 3.04 3 1 3 C0.67 2.01 0.34 1.02 0 0 Z " fill="#A90C2D" transform="translate(451,710)"/>
<path d="M0 0 C2 1 2 1 3 3 C-0.73437848 3.87867729 -4.16774573 4.08912219 -8 4 C-5.31143836 2.20762558 -3.0466145 1.01553817 0 0 Z " fill="#B0305B" transform="translate(584,702)"/>
<path d="M0 0 C1.98 0 3.96 0 6 0 C6.33 0.99 6.66 1.98 7 3 C4.69 3 2.38 3 0 3 C0 2.01 0 1.02 0 0 Z " fill="#AD0A27" transform="translate(418,695)"/>
<path d="M0 0 C2.51699845 2.51699845 3.10964078 4.57554146 4 8 C3.55078125 10.1953125 3.55078125 10.1953125 3 12 C2.30062798 10.5682384 1.61587282 9.12932968 0.9375 7.6875 C0.55464844 6.88699219 0.17179688 6.08648437 -0.22265625 5.26171875 C-1 3 -1 3 0 0 Z " fill="#C52F2A" transform="translate(697,432)"/>
<path d="M0 0 C0.99 0.33 1.98 0.66 3 1 C4.1875 3.5625 4.1875 3.5625 5 6 C3.68 6 2.36 6 1 6 C1 5.34 1 4.68 1 4 C0.34 3.67 -0.32 3.34 -1 3 C-0.67 2.01 -0.34 1.02 0 0 Z " fill="#DC5B42" transform="translate(672,368)"/>
<path d="M0 0 C1.32 0 2.64 0 4 0 C4.33 1.32 4.66 2.64 5 4 C2.03 3.505 2.03 3.505 -1 3 C-0.67 2.01 -0.34 1.02 0 0 Z " fill="#28B3C4" transform="translate(522,588)"/>
<path d="M0 0 C1.485 0.99 1.485 0.99 3 2 C3.1875 4.625 3.1875 4.625 3 7 C2.34 7 1.68 7 1 7 C0.67 7.66 0.34 8.32 0 9 C0 6.03 0 3.06 0 0 Z " fill="#A00C30" transform="translate(721,565)"/>
<path d="M0 0 C-2.97 1.32 -5.94 2.64 -9 4 C-9.99 3.01 -10.98 2.02 -12 1 C-4.5 -1.125 -4.5 -1.125 0 0 Z " fill="#DFC7D0" transform="translate(571,728)"/>
<path d="M0 0 C0.99 0.33 1.98 0.66 3 1 C2.3125 2.9375 2.3125 2.9375 1 5 C-1.625 5.75 -1.625 5.75 -4 6 C-4 5.34 -4 4.68 -4 4 C-3.01 4 -2.02 4 -1 4 C-0.67 2.68 -0.34 1.36 0 0 Z " fill="#9E1544" transform="translate(574,721)"/>
<path d="M0 0 C1.32 0.33 2.64 0.66 4 1 C2.25 4.875 2.25 4.875 0 6 C-0.66 5.67 -1.32 5.34 -2 5 C-1.34 3.35 -0.68 1.7 0 0 Z " fill="#980E3C" transform="translate(620,684)"/>
<path d="M0 0 C2 1 2 1 3.125 4.0625 C3.41375 5.031875 3.7025 6.00125 4 7 C1.37812506 5.95125002 0.20628639 5.35068687 -1.25 2.875 C-1.4975 2.25625 -1.745 1.6375 -2 1 C-1.34 0.67 -0.68 0.34 0 0 Z " fill="#239CB7" transform="translate(597,606)"/>
<path d="M0 0 C0.66 0 1.32 0 2 0 C2 2.31 2 4.62 2 7 C1.01 6.67 0.02 6.34 -1 6 C-1.042721 4.33388095 -1.04063832 2.66617115 -1 1 C-0.67 0.67 -0.34 0.34 0 0 Z " fill="#E9E4E2" transform="translate(711,529)"/>
<path d="M0 0 C1.32 0 2.64 0 4 0 C5.625 2.3125 5.625 2.3125 7 5 C7.99 6.485 7.99 6.485 9 8 C4.7257442 6.4169423 2.73468206 3.49431596 0 0 Z " fill="#2AB0C5" transform="translate(533,425)"/>
<path d="M0 0 C0.99 0.33 1.98 0.66 3 1 C3 3.31 3 5.62 3 8 C2.01 7.67 1.02 7.34 0 7 C0 4.69 0 2.38 0 0 Z " fill="#950A2E" transform="translate(713,590)"/>
<path d="M0 0 C0.66 0 1.32 0 2 0 C2 2.31 2 4.62 2 7 C0.68 7.33 -0.64 7.66 -2 8 C-1.34 5.36 -0.68 2.72 0 0 Z " fill="#EA6A32" transform="translate(308,434)"/>
<path d="M0 0 C1.32 1.32 2.64 2.64 4 4 C-2.625 4.25 -2.625 4.25 -6 2 C-3.03 2.495 -3.03 2.495 0 3 C0 2.01 0 1.02 0 0 Z " fill="#48B0C8" transform="translate(632,625)"/>
<path d="M0 0 C0.66 0.99 1.32 1.98 2 3 C1.34 4.32 0.68 5.64 0 7 C-0.66 7 -1.32 7 -2 7 C-1.125 1.125 -1.125 1.125 0 0 Z " fill="#CB3631" transform="translate(715,431)"/>
</svg>
